<?xml version="1.0" standalone="no"?>
<!DOCTYPE svg PUBLIC "-//W3C//DTD SVG 20010904//EN"
 "http://www.w3.org/TR/2001/REC-SVG-20010904/DTD/svg10.dtd">
<svg version="1.0" xmlns="http://www.w3.org/2000/svg"
 width="512.000000pt" height="512.000000pt" viewBox="0 0 512.000000 512.000000"
 preserveAspectRatio="xMidYMid meet">
<metadata>
Created by potrace 1.11, written by Peter Selinger 2001-2013
</metadata>
<g transform="translate(0.000000,512.000000) scale(0.100000,-0.100000)"
fill="#000000" stroke="none">
<path d="M2287 4704 c-3 -4 -28 -8 -56 -9 -28 -2 -66 -9 -86 -15 -20 -7 -45
-10 -56 -7 -10 3 -19 1 -19 -3 0 -5 -12 -8 -27 -6 -16 1 -43 -7 -62 -18 -22
-13 -32 -15 -26 -7 6 11 4 12 -6 5 -8 -4 -19 -9 -26 -10 -7 -1 -26 -9 -44 -18
-17 -9 -35 -13 -39 -11 -5 3 -10 0 -12 -5 -2 -6 -13 -12 -25 -13 -12 0 -19 -5
-17 -9 3 -4 -3 -9 -13 -10 -10 0 -23 -2 -30 -2 -6 -1 -15 -5 -20 -10 -4 -5 -3
-6 5 -2 6 4 12 5 12 2 0 -7 -72 -40 -82 -38 -5 1 -8 -2 -8 -8 0 -5 -7 -10 -15
-10 -8 0 -15 -7 -15 -15 0 -9 -6 -12 -15 -9 -8 4 -15 1 -15 -5 0 -6 -7 -11
-15 -11 -8 0 -19 -9 -25 -20 -6 -11 -17 -20 -25 -20 -8 0 -15 -5 -15 -12 0 -6
-3 -9 -6 -5 -3 3 -16 -5 -28 -17 -29 -32 -48 -36 -70 -17 -14 11 -17 12 -11 2
6 -10 4 -12 -6 -5 -8 4 -25 7 -38 5 -17 -2 -21 1 -16 11 3 7 0 5 -8 -4 -8 -10
-16 -15 -19 -13 -3 3 -16 1 -29 -4 -14 -5 -62 -11 -107 -15 -46 -3 -87 -8 -93
-11 -5 -4 -9 0 -9 7 0 9 -3 10 -8 2 -4 -6 -15 -10 -24 -8 -10 1 -18 -3 -18 -9
0 -7 -5 -5 -10 3 -5 8 -10 10 -10 4 0 -6 -13 -10 -30 -9 -16 1 -30 -2 -30 -7
0 -5 -9 -4 -19 2 -14 7 -22 7 -27 -1 -4 -8 -9 -7 -15 2 -6 10 -9 10 -9 2 0 -8
-11 -11 -30 -9 -16 2 -30 -1 -30 -7 0 -5 -5 -5 -13 2 -8 6 -17 8 -21 4 -4 -4
-19 -8 -34 -8 -15 0 -33 -5 -41 -9 -9 -6 -12 -5 -8 1 4 7 -10 10 -39 8 -25 -1
-47 1 -49 5 -2 3 -19 5 -37 4 -18 -1 -39 3 -47 9 -11 9 -13 9 -8 1 4 -7 -2
-14 -14 -17 -17 -5 -19 -9 -10 -26 8 -15 7 -23 -4 -35 -8 -8 -10 -16 -5 -18 6
-2 12 -13 14 -24 3 -12 9 -38 14 -57 6 -20 7 -39 4 -42 -4 -4 0 -5 8 -3 10 2
14 -4 12 -17 -1 -12 7 -31 18 -43 11 -12 16 -22 9 -22 -8 0 -8 -4 1 -15 7 -8
9 -15 5 -15 -4 0 -2 -6 4 -13 6 -8 8 -17 4 -20 -3 -4 -1 -7 6 -7 9 0 12 -9 9
-25 -3 -13 -1 -22 3 -19 8 5 10 1 13 -32 1 -6 8 -20 16 -30 13 -16 13 -17 0
-9 -13 8 -13 6 -2 -8 8 -9 11 -21 7 -27 -3 -5 -1 -10 4 -10 6 0 10 -3 9 -7 -1
-5 7 -28 18 -53 10 -25 18 -48 16 -52 -1 -5 3 -8 9 -8 6 0 9 -6 6 -14 -3 -8 1
-20 9 -26 8 -7 14 -21 14 -31 0 -11 5 -19 10 -19 6 0 10 -9 10 -20 0 -11 3
-20 8 -20 4 0 13 -9 20 -21 11 -17 11 -20 0 -15 -7 4 -3 -1 9 -10 13 -9 23
-25 23 -35 0 -10 9 -23 20 -29 11 -6 20 -17 20 -25 0 -8 5 -15 10 -15 6 0 10
-9 10 -21 0 -11 5 -17 10 -14 6 3 10 -2 10 -12 0 -9 12 -28 27 -40 14 -13 22
-23 18 -23 -4 0 1 -8 12 -17 15 -14 19 -32 20 -80 1 -45 -3 -61 -11 -56 -6 4
-5 -1 3 -10 7 -9 11 -24 7 -32 -3 -8 -1 -15 5 -15 6 0 7 -5 4 -10 -12 -20 -6
-114 8 -137 5 -8 3 -13 -5 -13 -8 0 -9 -3 -3 -8 6 -4 12 -27 14 -52 1 -25 8
-51 15 -59 7 -10 7 -13 0 -8 -7 4 -11 -5 -12 -24 0 -16 3 -27 7 -25 4 3 8 -1
8 -9 0 -8 -3 -15 -7 -15 -3 0 -5 -38 -4 -85 2 -67 -1 -85 -12 -85 -7 0 -18 9
-24 20 -6 12 -16 18 -23 14 -7 -4 -9 -4 -5 1 8 9 -44 65 -54 58 -5 -2 -8 3 -8
12 0 9 -4 14 -9 11 -5 -4 -11 -3 -13 2 -8 19 -78 52 -118 56 -27 2 -49 10 -57
22 -9 12 -24 17 -47 16 -33 -2 -40 6 -50 58 -1 3 -5 11 -10 18 -4 7 -10 26
-12 41 -3 16 -14 53 -24 82 -11 30 -20 61 -20 71 0 24 -31 39 -54 26 -21 -12
-55 -83 -56 -116 l0 -23 -25 26 c-27 26 -42 30 -62 17 -14 -9 -22 -106 -12
-149 8 -37 5 -40 -17 -18 -24 24 -51 18 -59 -12 -13 -47 -14 -57 -6 -68 5 -5
12 -26 16 -45 4 -19 11 -40 16 -46 7 -8 1 -11 -17 -11 -36 0 -46 -15 -39 -54
4 -24 17 -41 43 -59 20 -13 40 -24 43 -23 11 3 3 -30 -16 -72 -15 -35 -16 -46
-5 -85 6 -25 12 -66 12 -93 1 -26 5 -50 9 -53 5 -3 9 -14 9 -25 0 -11 5 -29
11 -40 8 -16 13 -18 25 -8 23 19 29 3 31 -84 2 -71 6 -116 13 -124 2 -2 3 -6
4 -10 14 -61 128 -203 163 -203 8 0 11 -4 8 -10 -3 -5 -1 -10 5 -10 6 0 23
-12 37 -28 15 -15 23 -20 19 -12 -5 9 -2 8 7 -2 8 -10 19 -18 25 -18 5 0 13
-7 16 -16 3 -8 10 -12 16 -9 5 3 10 1 10 -4 0 -6 7 -11 15 -11 8 0 15 -4 15
-9 0 -5 7 -12 16 -15 10 -4 13 -2 9 7 -4 6 0 4 8 -5 8 -10 19 -18 25 -18 5 0
9 -8 7 -18 -2 -9 -4 -22 -4 -29 -1 -6 -7 -18 -14 -25 -7 -7 -13 -20 -14 -28
-1 -26 -15 -60 -23 -60 -4 0 -11 -16 -14 -35 -4 -20 -11 -33 -17 -30 -5 4 -9
-3 -9 -14 0 -26 -21 -71 -32 -71 -5 0 -6 -5 -3 -10 4 -6 2 -16 -3 -23 -5 -7
-17 -33 -27 -59 -10 -27 -22 -45 -28 -41 -6 4 -7 1 -2 -6 4 -7 0 -27 -8 -44
-9 -18 -27 -61 -40 -97 -13 -36 -28 -74 -32 -85 -4 -11 -10 -26 -12 -33 -1 -6
-5 -18 -7 -25 -2 -6 -7 -27 -11 -45 -4 -18 -12 -35 -16 -38 -5 -3 -7 -9 -4
-13 2 -5 0 -23 -6 -42 -6 -19 -13 -59 -16 -89 -3 -30 -10 -58 -15 -61 -7 -4
-7 -9 0 -13 5 -3 8 -22 5 -41 l-4 -36 68 3 c65 3 68 4 69 28 1 14 4 32 7 40 4
8 8 24 10 35 2 11 8 30 15 42 9 16 9 24 1 29 -8 5 -7 9 3 15 8 4 21 27 28 50
8 22 20 43 27 46 7 3 11 8 9 12 -3 4 -1 13 4 21 6 9 8 2 5 -20 -2 -19 -4 -35
-5 -35 -7 0 -4 -152 3 -162 6 -9 5 -13 -3 -13 -9 0 -9 -4 -2 -13 6 -7 13 -26
15 -42 l4 -30 214 -3 c161 -2 211 0 202 9 -12 12 0 45 22 61 6 4 7 8 2 8 -4 0
0 14 9 31 8 17 11 28 5 25 -6 -4 1 15 14 42 14 28 25 55 25 61 0 6 4 11 9 11
5 0 12 7 15 16 4 10 2 13 -7 9 -6 -4 -2 2 10 13 12 11 19 23 15 27 -4 3 2 13
12 21 11 8 16 14 12 14 -4 0 1 13 10 29 20 34 38 32 25 -2 -5 -12 -7 -30 -5
-40 1 -9 -2 -15 -6 -12 -5 3 -7 -11 -5 -30 4 -27 2 -34 -7 -29 -10 6 -10 5 -1
-8 7 -8 10 -17 8 -20 -10 -10 -14 -49 -4 -43 5 4 9 2 9 -4 0 -5 -5 -13 -10
-16 -5 -3 -10 -12 -10 -18 0 -7 4 -6 10 3 9 13 10 13 10 0 0 -9 -6 -22 -12
-29 -10 -11 -10 -13 0 -7 6 4 12 2 12 -3 0 -6 -4 -11 -10 -11 -5 0 -10 -5 -10
-11 0 -5 5 -7 11 -4 6 4 9 -2 8 -17 -1 -12 -1 -35 -1 -50 l2 -28 1098 1 c603
0 1091 3 1085 6 -9 3 -10 10 -4 21 5 9 8 33 7 52 -1 19 1 54 4 77 4 25 2 47
-4 54 -8 9 -8 10 2 5 6 -4 12 -4 13 1 0 4 2 16 4 26 2 9 -1 17 -6 17 -6 0 -6
7 -2 18 5 9 9 99 8 199 0 100 2 179 4 177 3 -2 10 -20 17 -39 8 -25 8 -33 0
-28 -7 4 -6 1 1 -9 7 -8 10 -18 6 -21 -3 -4 -1 -7 5 -7 7 0 12 -5 12 -11 0 -5
-4 -8 -9 -5 -10 7 -8 -9 3 -36 4 -9 5 -22 1 -28 -3 -5 -2 -10 2 -10 5 0 8 -18
8 -40 0 -22 2 -40 6 -40 6 0 8 -26 11 -155 1 -16 6 -33 12 -37 8 -5 7 -8 -1
-8 -14 0 -14 -39 1 -59 7 -10 8 -13 0 -9 -6 4 -11 -14 -12 -53 l-2 -59 275 0
c252 0 274 1 268 17 -5 11 -3 14 6 8 10 -6 11 -3 2 13 -8 14 -8 23 -1 27 6 4
10 12 9 18 -3 25 1 60 6 55 3 -3 8 -18 11 -34 3 -16 9 -31 14 -34 4 -3 10 -19
12 -35 3 -29 5 -30 57 -33 l53 -3 -7 47 c-3 25 -9 53 -13 62 -4 11 -1 13 9 8
8 -4 6 -1 -4 7 -11 10 -19 31 -20 60 -1 25 -6 42 -11 39 -5 -3 -7 7 -4 21 3
15 1 24 -3 21 -5 -3 -9 -2 -10 3 -4 36 -11 72 -20 95 -6 15 -8 32 -3 39 4 7 3
10 -3 6 -14 -9 -22 13 -19 47 2 14 -1 26 -6 26 -6 0 -8 7 -4 15 3 8 1 15 -3
15 -5 0 -12 7 -15 16 -4 10 -2 13 7 8 8 -5 8 -2 -2 9 -7 9 -11 24 -7 32 3 8 1
15 -5 15 -6 0 -7 5 -4 10 3 6 2 10 -2 10 -5 0 -9 8 -10 18 -1 9 -5 31 -8 47
-3 17 -8 37 -9 45 -2 8 -7 23 -11 33 -4 10 -8 38 -9 62 0 24 -5 41 -10 37 -5
-3 -7 5 -4 16 4 12 2 22 -4 22 -6 0 -8 6 -5 14 3 8 3 17 -1 20 -10 11 -11 36
-1 36 6 0 7 5 4 10 -5 9 8 14 19 8 2 -2 14 8 26 22 12 14 19 19 15 13 -3 -7
-1 -13 5 -13 7 0 14 9 17 19 3 11 12 22 20 25 8 3 11 1 8 -4 -3 -6 1 -7 9 -4
9 3 14 10 11 14 -3 4 3 14 12 21 14 12 16 12 9 -1 -4 -8 4 -2 18 13 14 15 26
24 26 20 0 -4 5 0 11 10 6 9 14 15 20 12 5 -4 9 1 9 9 0 8 5 18 12 22 7 4 8 3
4 -4 -4 -7 -5 -12 -1 -12 3 0 10 12 15 26 6 14 14 22 20 19 5 -3 10 -1 10 5 0
15 26 41 34 33 3 -4 6 -1 6 5 0 19 33 52 44 45 6 -3 8 -3 4 2 -8 8 15 55 41
88 8 9 10 17 5 17 -5 0 -4 4 1 8 14 10 47 74 34 66 -7 -4 -9 0 -5 14 8 24 14
51 24 107 6 34 12 40 34 43 15 2 32 10 38 18 7 8 19 14 26 14 8 0 19 12 25 27
8 22 7 30 -5 39 -9 6 -16 20 -16 32 0 11 -5 22 -12 24 -6 2 -12 19 -13 37 -1
28 3 35 29 46 17 7 34 11 38 9 5 -3 8 0 8 6 0 6 5 8 10 5 6 -3 10 -1 10 4 0 6
6 11 14 11 24 0 42 56 21 64 -21 8 -12 30 23 62 51 45 45 117 -8 113 -49 -4
-52 -1 -30 29 11 15 23 48 26 75 7 46 6 47 -19 47 -14 0 -28 -4 -31 -9 -3 -5
-18 -12 -33 -16 -15 -3 -31 -12 -35 -18 -14 -22 -27 14 -16 42 6 14 12 48 14
76 2 39 -2 53 -18 66 -11 10 -27 15 -36 12 -22 -8 -62 -52 -62 -69 0 -7 -7
-20 -16 -29 -9 -9 -14 -18 -11 -22 3 -3 1 -10 -4 -17 -5 -6 -16 -20 -24 -31
-9 -11 -15 -15 -14 -10 3 25 -3 34 -31 44 -29 10 -32 8 -67 -40 -20 -28 -39
-46 -42 -41 -3 5 -15 12 -26 16 -15 4 -25 -2 -39 -23 -13 -19 -28 -28 -45 -28
-14 0 -41 -3 -58 -7 -38 -9 -43 5 -16 43 12 18 13 22 2 16 -12 -8 -12 -6 0 8
11 14 11 17 0 17 -11 0 -11 2 -1 9 7 4 12 12 11 17 -5 17 13 94 21 94 5 0 7
11 4 25 -3 15 0 25 7 25 8 0 8 4 0 13 -8 10 -7 17 2 27 7 8 8 11 1 7 -9 -5 -9
4 -2 36 6 23 10 54 10 70 -1 16 3 25 10 21 7 -4 6 0 -1 13 -6 11 -7 23 -4 27
8 7 6 224 -2 236 -3 5 -2 11 3 14 12 7 4 81 -13 123 -14 33 -14 34 2 22 15
-13 15 -12 4 9 -6 12 -17 22 -23 22 -6 0 -8 3 -5 7 4 3 -1 15 -10 26 -13 15
-14 18 -3 12 8 -5 1 6 -17 25 -18 18 -30 37 -27 42 3 4 0 8 -5 8 -11 0 -37 19
-71 51 -9 8 -22 13 -28 11 -7 -2 -12 4 -12 14 0 9 -3 14 -7 11 -3 -4 -13 -1
-21 6 -11 8 -13 8 -9 0 5 -8 1 -8 -18 0 -28 13 -31 26 -12 46 8 9 8 12 0 7 -7
-4 -6 8 4 34 9 22 19 37 23 35 4 -2 5 7 2 22 -4 20 -2 24 9 18 11 -6 11 -5 2
5 -9 10 -8 16 3 27 8 8 12 19 9 24 -4 5 -1 9 5 9 6 0 9 4 5 9 -3 5 -1 12 4 16
6 3 8 12 4 20 -3 9 0 21 6 29 7 8 11 18 9 22 -1 5 4 20 11 33 11 19 11 22 -1
15 -7 -4 -4 3 7 16 11 13 14 20 8 16 -8 -4 -13 -1 -13 8 0 9 4 16 8 16 9 0 12
11 15 60 1 17 5 30 9 30 3 0 4 8 1 19 -3 10 0 22 7 26 8 5 8 10 -1 21 -6 8 -7
14 -2 14 5 0 9 10 9 23 1 35 13 107 20 119 5 7 2 8 -5 3 -10 -6 -11 -3 -1 15
6 12 9 28 6 36 -3 8 -2 14 2 14 5 0 6 16 4 35 -2 19 -8 32 -13 29 -5 -3 -9 -1
-9 3 0 5 -34 8 -75 8 -44 0 -75 -4 -75 -10 0 -5 -4 -4 -9 3 -4 8 -12 14 -16
14 -4 0 -12 -6 -16 -14 -7 -10 -9 -10 -9 0 0 10 -5 10 -21 1 -16 -8 -20 -8
-14 1 6 9 3 9 -13 1 -27 -14 -35 -14 -26 2 6 10 4 10 -7 0 -7 -7 -21 -13 -32
-13 -12 0 -16 4 -11 13 6 8 3 8 -9 -2 -10 -7 -48 -14 -91 -16 -41 -2 -79 -6
-85 -9 -5 -4 -12 -2 -16 4 -4 7 -12 7 -25 0 -13 -7 -21 -7 -25 0 -3 5 -11 10
-16 10 -6 0 -7 -5 -4 -10 8 -13 -18 -8 -27 5 -5 7 -8 6 -8 0 0 -6 -8 -11 -17
-12 -10 -1 -34 -5 -53 -8 -19 -4 -49 -7 -67 -8 -17 -1 -29 -5 -27 -9 3 -4 -12
-6 -33 -4 -42 4 -93 24 -93 38 0 4 -3 7 -7 7 -26 -4 -53 2 -48 11 4 6 3 9 -2
8 -12 -4 -102 25 -98 31 2 4 -11 7 -27 8 -17 1 -41 9 -54 18 -13 8 -24 11 -24
5 0 -8 -39 5 -92 31 -11 5 -18 4 -21 -4 -4 -9 -6 -9 -6 0 -1 7 -8 10 -18 6 -9
-4 -14 -2 -11 3 4 5 -10 9 -30 10 -21 0 -53 4 -72 8 -19 5 -44 8 -55 8 -10 -1
-25 3 -31 9 -8 7 -14 6 -19 -1 -3 -6 -12 -7 -18 -3 -18 11 -38 12 -31 2 3 -5
1 -9 -5 -9 -5 0 -13 5 -16 10 -4 6 -12 7 -18 3 -14 -10 -67 -10 -83 0 -6 3
-14 4 -17 1z"/>
</g>
</svg>
